<?xml version="1.0" encoding="UTF-8" standalone="no"?> <svg xmlns="http://www.w3.org/2000/svg" version="1.1" width="252" height="252"><title>QR Code</title><desc>BEGIN:VCARD VERSION:2.1 FN:Zongkai Jiang N:Jiang;Zongkai TITLE:Sales Manager TEL;HOME;VOICE:+4915256969322 EMAIL;HOME;INTERNET:zongkai.jiang@thinkcar.com EMAIL;WORK;INTERNET:zongkai.jiang@thinkcar.com URL:https://thinkcareuro.com ADR:;;Rahmannstraße 11;Eschborn;;65760;Deutschland ORG:Thinkcar Europe GmbH END:VCARD </desc><rect style="fill:rgb(255, 255, 255);fill-opacity:1" x="0" y="0" width="252" height="252"></rect><g id="elements"><path style="fill:rgb(0, 0, 0)" d="M 4,4 l 4,0 0,4 -4,0 z M 8,4 l 4,0 0,4 -4,0 z M 12,4 l 4,0 0,4 -4,0 z M 16,4 l 4,0 0,4 -4,0 z M 20,4 l 4,0 0,4 -4,0 z M 24,4 l 4,0 0,4 -4,0 z M 28,4 l 4,0 0,4 -4,0 z M 44,4 l 4,0 0,4 -4,0 z M 64,4 l 4,0 0,4 -4,0 z M 72,4 l 4,0 0,4 -4,0 z M 76,4 l 4,0 0,4 -4,0 z M 92,4 l 4,0 0,4 -4,0 z M 104,4 l 4,0 0,4 -4,0 z M 116,4 l 4,0 0,4 -4,0 z M 120,4 l 4,0 0,4 -4,0 z M 124,4 l 4,0 0,4 -4,0 z M 132,4 l 4,0 0,4 -4,0 z M 136,4 l 4,0 0,4 -4,0 z M 140,4 l 4,0 0,4 -4,0 z M 144,4 l 4,0 0,4 -4,0 z M 156,4 l 4,0 0,4 -4,0 z M 160,4 l 4,0 0,4 -4,0 z M 180,4 l 4,0 0,4 -4,0 z M 192,4 l 4,0 0,4 -4,0 z M 196,4 l 4,0 0,4 -4,0 z M 200,4 l 4,0 0,4 -4,0 z M 208,4 l 4,0 0,4 -4,0 z M 212,4 l 4,0 0,4 -4,0 z M 220,4 l 4,0 0,4 -4,0 z M 224,4 l 4,0 0,4 -4,0 z M 228,4 l 4,0 0,4 -4,0 z M 232,4 l 4,0 0,4 -4,0 z M 236,4 l 4,0 0,4 -4,0 z M 240,4 l 4,0 0,4 -4,0 z M 244,4 l 4,0 0,4 -4,0 z M 4,8 l 4,0 0,4 -4,0 z M 28,8 l 4,0 0,4 -4,0 z M 36,8 l 4,0 0,4 -4,0 z M 48,8 l 4,0 0,4 -4,0 z M 52,8 l 4,0 0,4 -4,0 z M 56,8 l 4,0 0,4 -4,0 z M 64,8 l 4,0 0,4 -4,0 z M 72,8 l 4,0 0,4 -4,0 z M 76,8 l 4,0 0,4 -4,0 z M 84,8 l 4,0 0,4 -4,0 z M 104,8 l 4,0 0,4 -4,0 z M 112,8 l 4,0 0,4 -4,0 z M 116,8 l 4,0 0,4 -4,0 z M 132,8 l 4,0 0,4 -4,0 z M 136,8 l 4,0 0,4 -4,0 z M 140,8 l 4,0 0,4 -4,0 z M 148,8 l 4,0 0,4 -4,0 z M 156,8 l 4,0 0,4 -4,0 z M 172,8 l 4,0 0,4 -4,0 z M 176,8 l 4,0 0,4 -4,0 z M 184,8 l 4,0 0,4 -4,0 z M 196,8 l 4,0 0,4 -4,0 z M 200,8 l 4,0 0,4 -4,0 z M 208,8 l 4,0 0,4 -4,0 z M 212,8 l 4,0 0,4 -4,0 z M 220,8 l 4,0 0,4 -4,0 z M 244,8 l 4,0 0,4 -4,0 z M 4,12 l 4,0 0,4 -4,0 z M 12,12 l 4,0 0,4 -4,0 z M 16,12 l 4,0 0,4 -4,0 z M 20,12 l 4,0 0,4 -4,0 z M 28,12 l 4,0 0,4 -4,0 z M 64,12 l 4,0 0,4 -4,0 z M 68,12 l 4,0 0,4 -4,0 z M 72,12 l 4,0 0,4 -4,0 z M 76,12 l 4,0 0,4 -4,0 z M 84,12 l 4,0 0,4 -4,0 z M 96,12 l 4,0 0,4 -4,0 z M 100,12 l 4,0 0,4 -4,0 z M 108,12 l 4,0 0,4 -4,0 z M 112,12 l 4,0 0,4 -4,0 z M 120,12 l 4,0 0,4 -4,0 z M 128,12 l 4,0 0,4 -4,0 z M 136,12 l 4,0 0,4 -4,0 z M 140,12 l 4,0 0,4 -4,0 z M 148,12 l 4,0 0,4 -4,0 z M 152,12 l 4,0 0,4 -4,0 z M 164,12 l 4,0 0,4 -4,0 z M 172,12 l 4,0 0,4 -4,0 z M 184,12 l 4,0 0,4 -4,0 z M 192,12 l 4,0 0,4 -4,0 z M 204,12 l 4,0 0,4 -4,0 z M 208,12 l 4,0 0,4 -4,0 z M 212,12 l 4,0 0,4 -4,0 z M 220,12 l 4,0 0,4 -4,0 z M 228,12 l 4,0 0,4 -4,0 z M 232,12 l 4,0 0,4 -4,0 z M 236,12 l 4,0 0,4 -4,0 z M 244,12 l 4,0 0,4 -4,0 z M 4,16 l 4,0 0,4 -4,0 z M 12,16 l 4,0 0,4 -4,0 z M 16,16 l 4,0 0,4 -4,0 z M 20,16 l 4,0 0,4 -4,0 z M 28,16 l 4,0 0,4 -4,0 z M 36,16 l 4,0 0,4 -4,0 z M 40,16 l 4,0 0,4 -4,0 z M 44,16 l 4,0 0,4 -4,0 z M 56,16 l 4,0 0,4 -4,0 z M 76,16 l 4,0 0,4 -4,0 z M 80,16 l 4,0 0,4 -4,0 z M 88,16 l 4,0 0,4 -4,0 z M 96,16 l 4,0 0,4 -4,0 z M 108,16 l 4,0 0,4 -4,0 z M 124,16 l 4,0 0,4 -4,0 z M 128,16 l 4,0 0,4 -4,0 z M 148,16 l 4,0 0,4 -4,0 z M 160,16 l 4,0 0,4 -4,0 z M 164,16 l 4,0 0,4 -4,0 z M 168,16 l 4,0 0,4 -4,0 z M 184,16 l 4,0 0,4 -4,0 z M 204,16 l 4,0 0,4 -4,0 z M 212,16 l 4,0 0,4 -4,0 z M 220,16 l 4,0 0,4 -4,0 z M 228,16 l 4,0 0,4 -4,0 z M 232,16 l 4,0 0,4 -4,0 z M 236,16 l 4,0 0,4 -4,0 z M 244,16 l 4,0 0,4 -4,0 z M 4,20 l 4,0 0,4 -4,0 z M 12,20 l 4,0 0,4 -4,0 z M 16,20 l 4,0 0,4 -4,0 z M 20,20 l 4,0 0,4 -4,0 z M 28,20 l 4,0 0,4 -4,0 z M 40,20 l 4,0 0,4 -4,0 z M 52,20 l 4,0 0,4 -4,0 z M 56,20 l 4,0 0,4 -4,0 z M 68,20 l 4,0 0,4 -4,0 z M 92,20 l 4,0 0,4 -4,0 z M 96,20 l 4,0 0,4 -4,0 z M 104,20 l 4,0 0,4 -4,0 z M 108,20 l 4,0 0,4 -4,0 z M 112,20 l 4,0 0,4 -4,0 z M 116,20 l 4,0 0,4 -4,0 z M 120,20 l 4,0 0,4 -4,0 z M 124,20 l 4,0 0,4 -4,0 z M 128,20 l 4,0 0,4 -4,0 z M 132,20 l 4,0 0,4 -4,0 z M 136,20 l 4,0 0,4 -4,0 z M 148,20 l 4,0 0,4 -4,0 z M 156,20 l 4,0 0,4 -4,0 z M 172,20 l 4,0 0,4 -4,0 z M 176,20 l 4,0 0,4 -4,0 z M 180,20 l 4,0 0,4 -4,0 z M 184,20 l 4,0 0,4 -4,0 z M 192,20 l 4,0 0,4 -4,0 z M 200,20 l 4,0 0,4 -4,0 z M 204,20 l 4,0 0,4 -4,0 z M 208,20 l 4,0 0,4 -4,0 z M 220,20 l 4,0 0,4 -4,0 z M 228,20 l 4,0 0,4 -4,0 z M 232,20 l 4,0 0,4 -4,0 z M 236,20 l 4,0 0,4 -4,0 z M 244,20 l 4,0 0,4 -4,0 z M 4,24 l 4,0 0,4 -4,0 z M 28,24 l 4,0 0,4 -4,0 z M 36,24 l 4,0 0,4 -4,0 z M 44,24 l 4,0 0,4 -4,0 z M 48,24 l 4,0 0,4 -4,0 z M 52,24 l 4,0 0,4 -4,0 z M 56,24 l 4,0 0,4 -4,0 z M 60,24 l 4,0 0,4 -4,0 z M 64,24 l 4,0 0,4 -4,0 z M 68,24 l 4,0 0,4 -4,0 z M 72,24 l 4,0 0,4 -4,0 z M 76,24 l 4,0 0,4 -4,0 z M 84,24 l 4,0 0,4 -4,0 z M 108,24 l 4,0 0,4 -4,0 z M 116,24 l 4,0 0,4 -4,0 z M 132,24 l 4,0 0,4 -4,0 z M 136,24 l 4,0 0,4 -4,0 z M 140,24 l 4,0 0,4 -4,0 z M 152,24 l 4,0 0,4 -4,0 z M 156,24 l 4,0 0,4 -4,0 z M 160,24 l 4,0 0,4 -4,0 z M 168,24 l 4,0 0,4 -4,0 z M 172,24 l 4,0 0,4 -4,0 z M 184,24 l 4,0 0,4 -4,0 z M 196,24 l 4,0 0,4 -4,0 z M 200,24 l 4,0 0,4 -4,0 z M 204,24 l 4,0 0,4 -4,0 z M 220,24 l 4,0 0,4 -4,0 z M 244,24 l 4,0 0,4 -4,0 z M 4,28 l 4,0 0,4 -4,0 z M 8,28 l 4,0 0,4 -4,0 z M 12,28 l 4,0 0,4 -4,0 z M 16,28 l 4,0 0,4 -4,0 z M 20,28 l 4,0 0,4 -4,0 z M 24,28 l 4,0 0,4 -4,0 z M 28,28 l 4,0 0,4 -4,0 z M 36,28 l 4,0 0,4 -4,0 z M 44,28 l 4,0 0,4 -4,0 z M 52,28 l 4,0 0,4 -4,0 z M 60,28 l 4,0 0,4 -4,0 z M 68,28 l 4,0 0,4 -4,0 z M 76,28 l 4,0 0,4 -4,0 z M 84,28 l 4,0 0,4 -4,0 z M 92,28 l 4,0 0,4 -4,0 z M 100,28 l 4,0 0,4 -4,0 z M 108,28 l 4,0 0,4 -4,0 z M 116,28 l 4,0 0,4 -4,0 z M 124,28 l 4,0 0,4 -4,0 z M 132,28 l 4,0 0,4 -4,0 z M 140,28 l 4,0 0,4 -4,0 z M 148,28 l 4,0 0,4 -4,0 z M 156,28 l 4,0 0,4 -4,0 z M 164,28 l 4,0 0,4 -4,0 z M 172,28 l 4,0 0,4 -4,0 z M 180,28 l 4,0 0,4 -4,0 z M 188,28 l 4,0 0,4 -4,0 z M 196,28 l 4,0 0,4 -4,0 z M 204,28 l 4,0 0,4 -4,0 z M 212,28 l 4,0 0,4 -4,0 z M 220,28 l 4,0 0,4 -4,0 z M 224,28 l 4,0 0,4 -4,0 z M 228,28 l 4,0 0,4 -4,0 z M 232,28 l 4,0 0,4 -4,0 z M 236,28 l 4,0 0,4 -4,0 z M 240,28 l 4,0 0,4 -4,0 z M 244,28 l 4,0 0,4 -4,0 z M 48,32 l 4,0 0,4 -4,0 z M 60,32 l 4,0 0,4 -4,0 z M 80,32 l 4,0 0,4 -4,0 z M 88,32 l 4,0 0,4 -4,0 z M 92,32 l 4,0 0,4 -4,0 z M 96,32 l 4,0 0,4 -4,0 z M 100,32 l 4,0 0,4 -4,0 z M 108,32 l 4,0 0,4 -4,0 z M 112,32 l 4,0 0,4 -4,0 z M 116,32 l 4,0 0,4 -4,0 z M 132,32 l 4,0 0,4 -4,0 z M 152,32 l 4,0 0,4 -4,0 z M 160,32 l 4,0 0,4 -4,0 z M 164,32 l 4,0 0,4 -4,0 z M 168,32 l 4,0 0,4 -4,0 z M 172,32 l 4,0 0,4 -4,0 z M 180,32 l 4,0 0,4 -4,0 z M 200,32 l 4,0 0,4 -4,0 z M 4,36 l 4,0 0,4 -4,0 z M 8,36 l 4,0 0,4 -4,0 z M 12,36 l 4,0 0,4 -4,0 z M 16,36 l 4,0 0,4 -4,0 z M 20,36 l 4,0 0,4 -4,0 z M 28,36 l 4,0 0,4 -4,0 z M 32,36 l 4,0 0,4 -4,0 z M 36,36 l 4,0 0,4 -4,0 z M 40,36 l 4,0 0,4 -4,0 z M 48,36 l 4,0 0,4 -4,0 z M 60,36 l 4,0 0,4 -4,0 z M 64,36 l 4,0 0,4 -4,0 z M 68,36 l 4,0 0,4 -4,0 z M 80,36 l 4,0 0,4 -4,0 z M 92,36 l 4,0 0,4 -4,0 z M 96,36 l 4,0 0,4 -4,0 z M 100,36 l 4,0 0,4 -4,0 z M 108,36 l 4,0 0,4 -4,0 z M 116,36 l 4,0 0,4 -4,0 z M 120,36 l 4,0 0,4 -4,0 z M 124,36 l 4,0 0,4 -4,0 z M 128,36 l 4,0 0,4 -4,0 z M 132,36 l 4,0 0,4 -4,0 z M 136,36 l 4,0 0,4 -4,0 z M 156,36 l 4,0 0,4 -4,0 z M 164,36 l 4,0 0,4 -4,0 z M 180,36 l 4,0 0,4 -4,0 z M 184,36 l 4,0 0,4 -4,0 z M 188,36 l 4,0 0,4 -4,0 z M 192,36 l 4,0 0,4 -4,0 z M 204,36 l 4,0 0,4 -4,0 z M 208,36 l 4,0 0,4 -4,0 z M 212,36 l 4,0 0,4 -4,0 z M 216,36 l 4,0 0,4 -4,0 z M 224,36 l 4,0 0,4 -4,0 z M 232,36 l 4,0 0,4 -4,0 z M 240,36 l 4,0 0,4 -4,0 z M 4,40 l 4,0 0,4 -4,0 z M 8,40 l 4,0 0,4 -4,0 z M 20,40 l 4,0 0,4 -4,0 z M 32,40 l 4,0 0,4 -4,0 z M 40,40 l 4,0 0,4 -4,0 z M 48,40 l 4,0 0,4 -4,0 z M 56,40 l 4,0 0,4 -4,0 z M 64,40 l 4,0 0,4 -4,0 z M 68,40 l 4,0 0,4 -4,0 z M 72,40 l 4,0 0,4 -4,0 z M 80,40 l 4,0 0,4 -4,0 z M 84,40 l 4,0 0,4 -4,0 z M 88,40 l 4,0 0,4 -4,0 z M 96,40 l 4,0 0,4 -4,0 z M 104,40 l 4,0 0,4 -4,0 z M 108,40 l 4,0 0,4 -4,0 z M 124,40 l 4,0 0,4 -4,0 z M 128,40 l 4,0 0,4 -4,0 z M 132,40 l 4,0 0,4 -4,0 z M 136,40 l 4,0 0,4 -4,0 z M 140,40 l 4,0 0,4 -4,0 z M 144,40 l 4,0 0,4 -4,0 z M 160,40 l 4,0 0,4 -4,0 z M 164,40 l 4,0 0,4 -4,0 z M 168,40 l 4,0 0,4 -4,0 z M 176,40 l 4,0 0,4 -4,0 z M 184,40 l 4,0 0,4 -4,0 z M 188,40 l 4,0 0,4 -4,0 z M 208,40 l 4,0 0,4 -4,0 z M 212,40 l 4,0 0,4 -4,0 z M 216,40 l 4,0 0,4 -4,0 z M 220,40 l 4,0 0,4 -4,0 z M 224,40 l 4,0 0,4 -4,0 z M 240,40 l 4,0 0,4 -4,0 z M 4,44 l 4,0 0,4 -4,0 z M 8,44 l 4,0 0,4 -4,0 z M 16,44 l 4,0 0,4 -4,0 z M 20,44 l 4,0 0,4 -4,0 z M 24,44 l 4,0 0,4 -4,0 z M 28,44 l 4,0 0,4 -4,0 z M 32,44 l 4,0 0,4 -4,0 z M 36,44 l 4,0 0,4 -4,0 z M 44,44 l 4,0 0,4 -4,0 z M 48,44 l 4,0 0,4 -4,0 z M 52,44 l 4,0 0,4 -4,0 z M 56,44 l 4,0 0,4 -4,0 z M 64,44 l 4,0 0,4 -4,0 z M 68,44 l 4,0 0,4 -4,0 z M 72,44 l 4,0 0,4 -4,0 z M 76,44 l 4,0 0,4 -4,0 z M 80,44 l 4,0 0,4 -4,0 z M 88,44 l 4,0 0,4 -4,0 z M 100,44 l 4,0 0,4 -4,0 z M 116,44 l 4,0 0,4 -4,0 z M 136,44 l 4,0 0,4 -4,0 z M 140,44 l 4,0 0,4 -4,0 z M 148,44 l 4,0 0,4 -4,0 z M 152,44 l 4,0 0,4 -4,0 z M 156,44 l 4,0 0,4 -4,0 z M 160,44 l 4,0 0,4 -4,0 z M 168,44 l 4,0 0,4 -4,0 z M 176,44 l 4,0 0,4 -4,0 z M 184,44 l 4,0 0,4 -4,0 z M 188,44 l 4,0 0,4 -4,0 z M 196,44 l 4,0 0,4 -4,0 z M 212,44 l 4,0 0,4 -4,0 z M 220,44 l 4,0 0,4 -4,0 z M 224,44 l 4,0 0,4 -4,0 z M 228,44 l 4,0 0,4 -4,0 z M 232,44 l 4,0 0,4 -4,0 z M 240,44 l 4,0 0,4 -4,0 z M 244,44 l 4,0 0,4 -4,0 z M 4,48 l 4,0 0,4 -4,0 z M 8,48 l 4,0 0,4 -4,0 z M 12,48 l 4,0 0,4 -4,0 z M 16,48 l 4,0 0,4 -4,0 z M 24,48 l 4,0 0,4 -4,0 z M 32,48 l 4,0 0,4 -4,0 z M 36,48 l 4,0 0,4 -4,0 z M 40,48 l 4,0 0,4 -4,0 z M 44,48 l 4,0 0,4 -4,0 z M 48,48 l 4,0 0,4 -4,0 z M 52,48 l 4,0 0,4 -4,0 z M 60,48 l 4,0 0,4 -4,0 z M 84,48 l 4,0 0,4 -4,0 z M 88,48 l 4,0 0,4 -4,0 z M 92,48 l 4,0 0,4 -4,0 z M 96,48 l 4,0 0,4 -4,0 z M 112,48 l 4,0 0,4 -4,0 z M 116,48 l 4,0 0,4 -4,0 z M 120,48 l 4,0 0,4 -4,0 z M 128,48 l 4,0 0,4 -4,0 z M 132,48 l 4,0 0,4 -4,0 z M 136,48 l 4,0 0,4 -4,0 z M 152,48 l 4,0 0,4 -4,0 z M 160,48 l 4,0 0,4 -4,0 z M 168,48 l 4,0 0,4 -4,0 z M 176,48 l 4,0 0,4 -4,0 z M 184,48 l 4,0 0,4 -4,0 z M 196,48 l 4,0 0,4 -4,0 z M 216,48 l 4,0 0,4 -4,0 z M 220,48 l 4,0 0,4 -4,0 z M 224,48 l 4,0 0,4 -4,0 z M 236,48 l 4,0 0,4 -4,0 z M 240,48 l 4,0 0,4 -4,0 z M 244,48 l 4,0 0,4 -4,0 z M 16,52 l 4,0 0,4 -4,0 z M 20,52 l 4,0 0,4 -4,0 z M 28,52 l 4,0 0,4 -4,0 z M 36,52 l 4,0 0,4 -4,0 z M 48,52 l 4,0 0,4 -4,0 z M 64,52 l 4,0 0,4 -4,0 z M 72,52 l 4,0 0,4 -4,0 z M 92,52 l 4,0 0,4 -4,0 z M 108,52 l 4,0 0,4 -4,0 z M 112,52 l 4,0 0,4 -4,0 z M 116,52 l 4,0 0,4 -4,0 z M 120,52 l 4,0 0,4 -4,0 z M 128,52 l 4,0 0,4 -4,0 z M 136,52 l 4,0 0,4 -4,0 z M 160,52 l 4,0 0,4 -4,0 z M 188,52 l 4,0 0,4 -4,0 z M 196,52 l 4,0 0,4 -4,0 z M 200,52 l 4,0 0,4 -4,0 z M 204,52 l 4,0 0,4 -4,0 z M 208,52 l 4,0 0,4 -4,0 z M 224,52 l 4,0 0,4 -4,0 z M 236,52 l 4,0 0,4 -4,0 z M 240,52 l 4,0 0,4 -4,0 z M 244,52 l 4,0 0,4 -4,0 z M 4,56 l 4,0 0,4 -4,0 z M 20,56 l 4,0 0,4 -4,0 z M 24,56 l 4,0 0,4 -4,0 z M 32,56 l 4,0 0,4 -4,0 z M 44,56 l 4,0 0,4 -4,0 z M 48,56 l 4,0 0,4 -4,0 z M 56,56 l 4,0 0,4 -4,0 z M 80,56 l 4,0 0,4 -4,0 z M 88,56 l 4,0 0,4 -4,0 z M 92,56 l 4,0 0,4 -4,0 z M 108,56 l 4,0 0,4 -4,0 z M 112,56 l 4,0 0,4 -4,0 z M 120,56 l 4,0 0,4 -4,0 z M 124,56 l 4,0 0,4 -4,0 z M 132,56 l 4,0 0,4 -4,0 z M 144,56 l 4,0 0,4 -4,0 z M 160,56 l 4,0 0,4 -4,0 z M 168,56 l 4,0 0,4 -4,0 z M 184,56 l 4,0 0,4 -4,0 z M 188,56 l 4,0 0,4 -4,0 z M 192,56 l 4,0 0,4 -4,0 z M 196,56 l 4,0 0,4 -4,0 z M 200,56 l 4,0 0,4 -4,0 z M 208,56 l 4,0 0,4 -4,0 z M 220,56 l 4,0 0,4 -4,0 z M 228,56 l 4,0 0,4 -4,0 z M 240,56 l 4,0 0,4 -4,0 z M 12,60 l 4,0 0,4 -4,0 z M 16,60 l 4,0 0,4 -4,0 z M 20,60 l 4,0 0,4 -4,0 z M 24,60 l 4,0 0,4 -4,0 z M 28,60 l 4,0 0,4 -4,0 z M 36,60 l 4,0 0,4 -4,0 z M 40,60 l 4,0 0,4 -4,0 z M 48,60 l 4,0 0,4 -4,0 z M 52,60 l 4,0 0,4 -4,0 z M 56,60 l 4,0 0,4 -4,0 z M 60,60 l 4,0 0,4 -4,0 z M 72,60 l 4,0 0,4 -4,0 z M 76,60 l 4,0 0,4 -4,0 z M 88,60 l 4,0 0,4 -4,0 z M 96,60 l 4,0 0,4 -4,0 z M 104,60 l 4,0 0,4 -4,0 z M 108,60 l 4,0 0,4 -4,0 z M 112,60 l 4,0 0,4 -4,0 z M 116,60 l 4,0 0,4 -4,0 z M 120,60 l 4,0 0,4 -4,0 z M 124,60 l 4,0 0,4 -4,0 z M 132,60 l 4,0 0,4 -4,0 z M 136,60 l 4,0 0,4 -4,0 z M 144,60 l 4,0 0,4 -4,0 z M 148,60 l 4,0 0,4 -4,0 z M 152,60 l 4,0 0,4 -4,0 z M 156,60 l 4,0 0,4 -4,0 z M 160,60 l 4,0 0,4 -4,0 z M 164,60 l 4,0 0,4 -4,0 z M 168,60 l 4,0 0,4 -4,0 z M 172,60 l 4,0 0,4 -4,0 z M 188,60 l 4,0 0,4 -4,0 z M 200,60 l 4,0 0,4 -4,0 z M 208,60 l 4,0 0,4 -4,0 z M 224,60 l 4,0 0,4 -4,0 z M 232,60 l 4,0 0,4 -4,0 z M 236,60 l 4,0 0,4 -4,0 z M 244,60 l 4,0 0,4 -4,0 z M 4,64 l 4,0 0,4 -4,0 z M 8,64 l 4,0 0,4 -4,0 z M 12,64 l 4,0 0,4 -4,0 z M 16,64 l 4,0 0,4 -4,0 z M 20,64 l 4,0 0,4 -4,0 z M 24,64 l 4,0 0,4 -4,0 z M 40,64 l 4,0 0,4 -4,0 z M 60,64 l 4,0 0,4 -4,0 z M 76,64 l 4,0 0,4 -4,0 z M 80,64 l 4,0 0,4 -4,0 z M 100,64 l 4,0 0,4 -4,0 z M 116,64 l 4,0 0,4 -4,0 z M 128,64 l 4,0 0,4 -4,0 z M 132,64 l 4,0 0,4 -4,0 z M 148,64 l 4,0 0,4 -4,0 z M 152,64 l 4,0 0,4 -4,0 z M 160,64 l 4,0 0,4 -4,0 z M 168,64 l 4,0 0,4 -4,0 z M 172,64 l 4,0 0,4 -4,0 z M 184,64 l 4,0 0,4 -4,0 z M 196,64 l 4,0 0,4 -4,0 z M 200,64 l 4,0 0,4 -4,0 z M 216,64 l 4,0 0,4 -4,0 z M 228,64 l 4,0 0,4 -4,0 z M 240,64 l 4,0 0,4 -4,0 z M 12,68 l 4,0 0,4 -4,0 z M 16,68 l 4,0 0,4 -4,0 z M 20,68 l 4,0 0,4 -4,0 z M 28,68 l 4,0 0,4 -4,0 z M 32,68 l 4,0 0,4 -4,0 z M 40,68 l 4,0 0,4 -4,0 z M 44,68 l 4,0 0,4 -4,0 z M 48,68 l 4,0 0,4 -4,0 z M 56,68 l 4,0 0,4 -4,0 z M 60,68 l 4,0 0,4 -4,0 z M 64,68 l 4,0 0,4 -4,0 z M 68,68 l 4,0 0,4 -4,0 z M 80,68 l 4,0 0,4 -4,0 z M 88,68 l 4,0 0,4 -4,0 z M 96,68 l 4,0 0,4 -4,0 z M 104,68 l 4,0 0,4 -4,0 z M 108,68 l 4,0 0,4 -4,0 z M 112,68 l 4,0 0,4 -4,0 z M 116,68 l 4,0 0,4 -4,0 z M 120,68 l 4,0 0,4 -4,0 z M 136,68 l 4,0 0,4 -4,0 z M 140,68 l 4,0 0,4 -4,0 z M 144,68 l 4,0 0,4 -4,0 z M 156,68 l 4,0 0,4 -4,0 z M 160,68 l 4,0 0,4 -4,0 z M 176,68 l 4,0 0,4 -4,0 z M 184,68 l 4,0 0,4 -4,0 z M 196,68 l 4,0 0,4 -4,0 z M 204,68 l 4,0 0,4 -4,0 z M 212,68 l 4,0 0,4 -4,0 z M 220,68 l 4,0 0,4 -4,0 z M 228,68 l 4,0 0,4 -4,0 z M 232,68 l 4,0 0,4 -4,0 z M 240,68 l 4,0 0,4 -4,0 z M 244,68 l 4,0 0,4 -4,0 z M 16,72 l 4,0 0,4 -4,0 z M 20,72 l 4,0 0,4 -4,0 z M 36,72 l 4,0 0,4 -4,0 z M 48,72 l 4,0 0,4 -4,0 z M 52,72 l 4,0 0,4 -4,0 z M 64,72 l 4,0 0,4 -4,0 z M 76,72 l 4,0 0,4 -4,0 z M 80,72 l 4,0 0,4 -4,0 z M 84,72 l 4,0 0,4 -4,0 z M 88,72 l 4,0 0,4 -4,0 z M 92,72 l 4,0 0,4 -4,0 z M 120,72 l 4,0 0,4 -4,0 z M 124,72 l 4,0 0,4 -4,0 z M 128,72 l 4,0 0,4 -4,0 z M 136,72 l 4,0 0,4 -4,0 z M 140,72 l 4,0 0,4 -4,0 z M 148,72 l 4,0 0,4 -4,0 z M 156,72 l 4,0 0,4 -4,0 z M 160,72 l 4,0 0,4 -4,0 z M 164,72 l 4,0 0,4 -4,0 z M 176,72 l 4,0 0,4 -4,0 z M 180,72 l 4,0 0,4 -4,0 z M 184,72 l 4,0 0,4 -4,0 z M 192,72 l 4,0 0,4 -4,0 z M 196,72 l 4,0 0,4 -4,0 z M 200,72 l 4,0 0,4 -4,0 z M 204,72 l 4,0 0,4 -4,0 z M 224,72 l 4,0 0,4 -4,0 z M 240,72 l 4,0 0,4 -4,0 z M 4,76 l 4,0 0,4 -4,0 z M 8,76 l 4,0 0,4 -4,0 z M 16,76 l 4,0 0,4 -4,0 z M 28,76 l 4,0 0,4 -4,0 z M 32,76 l 4,0 0,4 -4,0 z M 40,76 l 4,0 0,4 -4,0 z M 52,76 l 4,0 0,4 -4,0 z M 56,76 l 4,0 0,4 -4,0 z M 64,76 l 4,0 0,4 -4,0 z M 76,76 l 4,0 0,4 -4,0 z M 84,76 l 4,0 0,4 -4,0 z M 96,76 l 4,0 0,4 -4,0 z M 104,76 l 4,0 0,4 -4,0 z M 112,76 l 4,0 0,4 -4,0 z M 128,76 l 4,0 0,4 -4,0 z M 132,76 l 4,0 0,4 -4,0 z M 136,76 l 4,0 0,4 -4,0 z M 144,76 l 4,0 0,4 -4,0 z M 148,76 l 4,0 0,4 -4,0 z M 152,76 l 4,0 0,4 -4,0 z M 160,76 l 4,0 0,4 -4,0 z M 168,76 l 4,0 0,4 -4,0 z M 172,76 l 4,0 0,4 -4,0 z M 176,76 l 4,0 0,4 -4,0 z M 184,76 l 4,0 0,4 -4,0 z M 196,76 l 4,0 0,4 -4,0 z M 200,76 l 4,0 0,4 -4,0 z M 204,76 l 4,0 0,4 -4,0 z M 228,76 l 4,0 0,4 -4,0 z M 236,76 l 4,0 0,4 -4,0 z M 240,76 l 4,0 0,4 -4,0 z M 244,76 l 4,0 0,4 -4,0 z M 4,80 l 4,0 0,4 -4,0 z M 16,80 l 4,0 0,4 -4,0 z M 20,80 l 4,0 0,4 -4,0 z M 36,80 l 4,0 0,4 -4,0 z M 40,80 l 4,0 0,4 -4,0 z M 52,80 l 4,0 0,4 -4,0 z M 72,80 l 4,0 0,4 -4,0 z M 80,80 l 4,0 0,4 -4,0 z M 84,80 l 4,0 0,4 -4,0 z M 88,80 l 4,0 0,4 -4,0 z M 92,80 l 4,0 0,4 -4,0 z M 100,80 l 4,0 0,4 -4,0 z M 108,80 l 4,0 0,4 -4,0 z M 116,80 l 4,0 0,4 -4,0 z M 120,80 l 4,0 0,4 -4,0 z M 132,80 l 4,0 0,4 -4,0 z M 136,80 l 4,0 0,4 -4,0 z M 148,80 l 4,0 0,4 -4,0 z M 152,80 l 4,0 0,4 -4,0 z M 164,80 l 4,0 0,4 -4,0 z M 168,80 l 4,0 0,4 -4,0 z M 176,80 l 4,0 0,4 -4,0 z M 184,80 l 4,0 0,4 -4,0 z M 200,80 l 4,0 0,4 -4,0 z M 208,80 l 4,0 0,4 -4,0 z M 220,80 l 4,0 0,4 -4,0 z M 224,80 l 4,0 0,4 -4,0 z M 228,80 l 4,0 0,4 -4,0 z M 12,84 l 4,0 0,4 -4,0 z M 16,84 l 4,0 0,4 -4,0 z M 20,84 l 4,0 0,4 -4,0 z M 28,84 l 4,0 0,4 -4,0 z M 40,84 l 4,0 0,4 -4,0 z M 44,84 l 4,0 0,4 -4,0 z M 48,84 l 4,0 0,4 -4,0 z M 52,84 l 4,0 0,4 -4,0 z M 64,84 l 4,0 0,4 -4,0 z M 80,84 l 4,0 0,4 -4,0 z M 88,84 l 4,0 0,4 -4,0 z M 112,84 l 4,0 0,4 -4,0 z M 116,84 l 4,0 0,4 -4,0 z M 120,84 l 4,0 0,4 -4,0 z M 128,84 l 4,0 0,4 -4,0 z M 132,84 l 4,0 0,4 -4,0 z M 140,84 l 4,0 0,4 -4,0 z M 160,84 l 4,0 0,4 -4,0 z M 164,84 l 4,0 0,4 -4,0 z M 168,84 l 4,0 0,4 -4,0 z M 172,84 l 4,0 0,4 -4,0 z M 176,84 l 4,0 0,4 -4,0 z M 188,84 l 4,0 0,4 -4,0 z M 192,84 l 4,0 0,4 -4,0 z M 204,84 l 4,0 0,4 -4,0 z M 224,84 l 4,0 0,4 -4,0 z M 228,84 l 4,0 0,4 -4,0 z M 232,84 l 4,0 0,4 -4,0 z M 240,84 l 4,0 0,4 -4,0 z M 244,84 l 4,0 0,4 -4,0 z M 4,88 l 4,0 0,4 -4,0 z M 12,88 l 4,0 0,4 -4,0 z M 20,88 l 4,0 0,4 -4,0 z M 24,88 l 4,0 0,4 -4,0 z M 36,88 l 4,0 0,4 -4,0 z M 40,88 l 4,0 0,4 -4,0 z M 44,88 l 4,0 0,4 -4,0 z M 48,88 l 4,0 0,4 -4,0 z M 60,88 l 4,0 0,4 -4,0 z M 64,88 l 4,0 0,4 -4,0 z M 68,88 l 4,0 0,4 -4,0 z M 80,88 l 4,0 0,4 -4,0 z M 84,88 l 4,0 0,4 -4,0 z M 100,88 l 4,0 0,4 -4,0 z M 104,88 l 4,0 0,4 -4,0 z M 108,88 l 4,0 0,4 -4,0 z M 112,88 l 4,0 0,4 -4,0 z M 124,88 l 4,0 0,4 -4,0 z M 128,88 l 4,0 0,4 -4,0 z M 132,88 l 4,0 0,4 -4,0 z M 136,88 l 4,0 0,4 -4,0 z M 140,88 l 4,0 0,4 -4,0 z M 144,88 l 4,0 0,4 -4,0 z M 148,88 l 4,0 0,4 -4,0 z M 180,88 l 4,0 0,4 -4,0 z M 184,88 l 4,0 0,4 -4,0 z M 220,88 l 4,0 0,4 -4,0 z M 232,88 l 4,0 0,4 -4,0 z M 244,88 l 4,0 0,4 -4,0 z M 20,92 l 4,0 0,4 -4,0 z M 24,92 l 4,0 0,4 -4,0 z M 28,92 l 4,0 0,4 -4,0 z M 36,92 l 4,0 0,4 -4,0 z M 40,92 l 4,0 0,4 -4,0 z M 44,92 l 4,0 0,4 -4,0 z M 48,92 l 4,0 0,4 -4,0 z M 52,92 l 4,0 0,4 -4,0 z M 56,92 l 4,0 0,4 -4,0 z M 64,92 l 4,0 0,4 -4,0 z M 68,92 l 4,0 0,4 -4,0 z M 72,92 l 4,0 0,4 -4,0 z M 96,92 l 4,0 0,4 -4,0 z M 108,92 l 4,0 0,4 -4,0 z M 132,92 l 4,0 0,4 -4,0 z M 144,92 l 4,0 0,4 -4,0 z M 152,92 l 4,0 0,4 -4,0 z M 160,92 l 4,0 0,4 -4,0 z M 164,92 l 4,0 0,4 -4,0 z M 184,92 l 4,0 0,4 -4,0 z M 192,92 l 4,0 0,4 -4,0 z M 196,92 l 4,0 0,4 -4,0 z M 200,92 l 4,0 0,4 -4,0 z M 204,92 l 4,0 0,4 -4,0 z M 208,92 l 4,0 0,4 -4,0 z M 220,92 l 4,0 0,4 -4,0 z M 12,96 l 4,0 0,4 -4,0 z M 20,96 l 4,0 0,4 -4,0 z M 24,96 l 4,0 0,4 -4,0 z M 36,96 l 4,0 0,4 -4,0 z M 40,96 l 4,0 0,4 -4,0 z M 48,96 l 4,0 0,4 -4,0 z M 52,96 l 4,0 0,4 -4,0 z M 56,96 l 4,0 0,4 -4,0 z M 72,96 l 4,0 0,4 -4,0 z M 80,96 l 4,0 0,4 -4,0 z M 88,96 l 4,0 0,4 -4,0 z M 92,96 l 4,0 0,4 -4,0 z M 96,96 l 4,0 0,4 -4,0 z M 100,96 l 4,0 0,4 -4,0 z M 104,96 l 4,0 0,4 -4,0 z M 112,96 l 4,0 0,4 -4,0 z M 120,96 l 4,0 0,4 -4,0 z M 128,96 l 4,0 0,4 -4,0 z M 132,96 l 4,0 0,4 -4,0 z M 152,96 l 4,0 0,4 -4,0 z M 160,96 l 4,0 0,4 -4,0 z M 164,96 l 4,0 0,4 -4,0 z M 168,96 l 4,0 0,4 -4,0 z M 172,96 l 4,0 0,4 -4,0 z M 180,96 l 4,0 0,4 -4,0 z M 192,96 l 4,0 0,4 -4,0 z M 196,96 l 4,0 0,4 -4,0 z M 200,96 l 4,0 0,4 -4,0 z M 220,96 l 4,0 0,4 -4,0 z M 244,96 l 4,0 0,4 -4,0 z M 4,100 l 4,0 0,4 -4,0 z M 8,100 l 4,0 0,4 -4,0 z M 12,100 l 4,0 0,4 -4,0 z M 20,100 l 4,0 0,4 -4,0 z M 24,100 l 4,0 0,4 -4,0 z M 28,100 l 4,0 0,4 -4,0 z M 32,100 l 4,0 0,4 -4,0 z M 40,100 l 4,0 0,4 -4,0 z M 60,100 l 4,0 0,4 -4,0 z M 68,100 l 4,0 0,4 -4,0 z M 84,100 l 4,0 0,4 -4,0 z M 92,100 l 4,0 0,4 -4,0 z M 96,100 l 4,0 0,4 -4,0 z M 100,100 l 4,0 0,4 -4,0 z M 112,100 l 4,0 0,4 -4,0 z M 116,100 l 4,0 0,4 -4,0 z M 120,100 l 4,0 0,4 -4,0 z M 124,100 l 4,0 0,4 -4,0 z M 136,100 l 4,0 0,4 -4,0 z M 140,100 l 4,0 0,4 -4,0 z M 144,100 l 4,0 0,4 -4,0 z M 156,100 l 4,0 0,4 -4,0 z M 160,100 l 4,0 0,4 -4,0 z M 180,100 l 4,0 0,4 -4,0 z M 184,100 l 4,0 0,4 -4,0 z M 188,100 l 4,0 0,4 -4,0 z M 204,100 l 4,0 0,4 -4,0 z M 208,100 l 4,0 0,4 -4,0 z M 212,100 l 4,0 0,4 -4,0 z M 220,100 l 4,0 0,4 -4,0 z M 224,100 l 4,0 0,4 -4,0 z M 232,100 l 4,0 0,4 -4,0 z M 240,100 l 4,0 0,4 -4,0 z M 244,100 l 4,0 0,4 -4,0 z M 4,104 l 4,0 0,4 -4,0 z M 12,104 l 4,0 0,4 -4,0 z M 16,104 l 4,0 0,4 -4,0 z M 20,104 l 4,0 0,4 -4,0 z M 36,104 l 4,0 0,4 -4,0 z M 52,104 l 4,0 0,4 -4,0 z M 56,104 l 4,0 0,4 -4,0 z M 60,104 l 4,0 0,4 -4,0 z M 72,104 l 4,0 0,4 -4,0 z M 76,104 l 4,0 0,4 -4,0 z M 84,104 l 4,0 0,4 -4,0 z M 88,104 l 4,0 0,4 -4,0 z M 96,104 l 4,0 0,4 -4,0 z M 104,104 l 4,0 0,4 -4,0 z M 108,104 l 4,0 0,4 -4,0 z M 124,104 l 4,0 0,4 -4,0 z M 128,104 l 4,0 0,4 -4,0 z M 132,104 l 4,0 0,4 -4,0 z M 136,104 l 4,0 0,4 -4,0 z M 140,104 l 4,0 0,4 -4,0 z M 148,104 l 4,0 0,4 -4,0 z M 152,104 l 4,0 0,4 -4,0 z M 156,104 l 4,0 0,4 -4,0 z M 164,104 l 4,0 0,4 -4,0 z M 168,104 l 4,0 0,4 -4,0 z M 176,104 l 4,0 0,4 -4,0 z M 180,104 l 4,0 0,4 -4,0 z M 184,104 l 4,0 0,4 -4,0 z M 188,104 l 4,0 0,4 -4,0 z M 200,104 l 4,0 0,4 -4,0 z M 208,104 l 4,0 0,4 -4,0 z M 212,104 l 4,0 0,4 -4,0 z M 220,104 l 4,0 0,4 -4,0 z M 224,104 l 4,0 0,4 -4,0 z M 228,104 l 4,0 0,4 -4,0 z M 240,104 l 4,0 0,4 -4,0 z M 8,108 l 4,0 0,4 -4,0 z M 12,108 l 4,0 0,4 -4,0 z M 20,108 l 4,0 0,4 -4,0 z M 24,108 l 4,0 0,4 -4,0 z M 28,108 l 4,0 0,4 -4,0 z M 44,108 l 4,0 0,4 -4,0 z M 48,108 l 4,0 0,4 -4,0 z M 52,108 l 4,0 0,4 -4,0 z M 64,108 l 4,0 0,4 -4,0 z M 72,108 l 4,0 0,4 -4,0 z M 76,108 l 4,0 0,4 -4,0 z M 80,108 l 4,0 0,4 -4,0 z M 104,108 l 4,0 0,4 -4,0 z M 112,108 l 4,0 0,4 -4,0 z M 116,108 l 4,0 0,4 -4,0 z M 132,108 l 4,0 0,4 -4,0 z M 144,108 l 4,0 0,4 -4,0 z M 148,108 l 4,0 0,4 -4,0 z M 152,108 l 4,0 0,4 -4,0 z M 156,108 l 4,0 0,4 -4,0 z M 192,108 l 4,0 0,4 -4,0 z M 196,108 l 4,0 0,4 -4,0 z M 204,108 l 4,0 0,4 -4,0 z M 220,108 l 4,0 0,4 -4,0 z M 224,108 l 4,0 0,4 -4,0 z M 232,108 l 4,0 0,4 -4,0 z M 240,108 l 4,0 0,4 -4,0 z M 4,112 l 4,0 0,4 -4,0 z M 12,112 l 4,0 0,4 -4,0 z M 20,112 l 4,0 0,4 -4,0 z M 24,112 l 4,0 0,4 -4,0 z M 40,112 l 4,0 0,4 -4,0 z M 44,112 l 4,0 0,4 -4,0 z M 48,112 l 4,0 0,4 -4,0 z M 64,112 l 4,0 0,4 -4,0 z M 68,112 l 4,0 0,4 -4,0 z M 88,112 l 4,0 0,4 -4,0 z M 92,112 l 4,0 0,4 -4,0 z M 100,112 l 4,0 0,4 -4,0 z M 104,112 l 4,0 0,4 -4,0 z M 112,112 l 4,0 0,4 -4,0 z M 120,112 l 4,0 0,4 -4,0 z M 140,112 l 4,0 0,4 -4,0 z M 152,112 l 4,0 0,4 -4,0 z M 160,112 l 4,0 0,4 -4,0 z M 172,112 l 4,0 0,4 -4,0 z M 184,112 l 4,0 0,4 -4,0 z M 196,112 l 4,0 0,4 -4,0 z M 200,112 l 4,0 0,4 -4,0 z M 204,112 l 4,0 0,4 -4,0 z M 216,112 l 4,0 0,4 -4,0 z M 224,112 l 4,0 0,4 -4,0 z M 228,112 l 4,0 0,4 -4,0 z M 236,112 l 4,0 0,4 -4,0 z M 240,112 l 4,0 0,4 -4,0 z M 8,116 l 4,0 0,4 -4,0 z M 16,116 l 4,0 0,4 -4,0 z M 20,116 l 4,0 0,4 -4,0 z M 24,116 l 4,0 0,4 -4,0 z M 28,116 l 4,0 0,4 -4,0 z M 32,116 l 4,0 0,4 -4,0 z M 36,116 l 4,0 0,4 -4,0 z M 40,116 l 4,0 0,4 -4,0 z M 44,116 l 4,0 0,4 -4,0 z M 56,116 l 4,0 0,4 -4,0 z M 64,116 l 4,0 0,4 -4,0 z M 68,116 l 4,0 0,4 -4,0 z M 76,116 l 4,0 0,4 -4,0 z M 80,116 l 4,0 0,4 -4,0 z M 88,116 l 4,0 0,4 -4,0 z M 96,116 l 4,0 0,4 -4,0 z M 100,116 l 4,0 0,4 -4,0 z M 104,116 l 4,0 0,4 -4,0 z M 112,116 l 4,0 0,4 -4,0 z M 116,116 l 4,0 0,4 -4,0 z M 120,116 l 4,0 0,4 -4,0 z M 124,116 l 4,0 0,4 -4,0 z M 128,116 l 4,0 0,4 -4,0 z M 132,116 l 4,0 0,4 -4,0 z M 136,116 l 4,0 0,4 -4,0 z M 148,116 l 4,0 0,4 -4,0 z M 156,116 l 4,0 0,4 -4,0 z M 164,116 l 4,0 0,4 -4,0 z M 196,116 l 4,0 0,4 -4,0 z M 204,116 l 4,0 0,4 -4,0 z M 208,116 l 4,0 0,4 -4,0 z M 212,116 l 4,0 0,4 -4,0 z M 216,116 l 4,0 0,4 -4,0 z M 220,116 l 4,0 0,4 -4,0 z M 224,116 l 4,0 0,4 -4,0 z M 228,116 l 4,0 0,4 -4,0 z M 240,116 l 4,0 0,4 -4,0 z M 244,116 l 4,0 0,4 -4,0 z M 12,120 l 4,0 0,4 -4,0 z M 20,120 l 4,0 0,4 -4,0 z M 36,120 l 4,0 0,4 -4,0 z M 40,120 l 4,0 0,4 -4,0 z M 48,120 l 4,0 0,4 -4,0 z M 52,120 l 4,0 0,4 -4,0 z M 60,120 l 4,0 0,4 -4,0 z M 64,120 l 4,0 0,4 -4,0 z M 68,120 l 4,0 0,4 -4,0 z M 72,120 l 4,0 0,4 -4,0 z M 76,120 l 4,0 0,4 -4,0 z M 92,120 l 4,0 0,4 -4,0 z M 96,120 l 4,0 0,4 -4,0 z M 100,120 l 4,0 0,4 -4,0 z M 112,120 l 4,0 0,4 -4,0 z M 116,120 l 4,0 0,4 -4,0 z M 132,120 l 4,0 0,4 -4,0 z M 140,120 l 4,0 0,4 -4,0 z M 144,120 l 4,0 0,4 -4,0 z M 148,120 l 4,0 0,4 -4,0 z M 160,120 l 4,0 0,4 -4,0 z M 164,120 l 4,0 0,4 -4,0 z M 172,120 l 4,0 0,4 -4,0 z M 180,120 l 4,0 0,4 -4,0 z M 184,120 l 4,0 0,4 -4,0 z M 192,120 l 4,0 0,4 -4,0 z M 196,120 l 4,0 0,4 -4,0 z M 204,120 l 4,0 0,4 -4,0 z M 208,120 l 4,0 0,4 -4,0 z M 212,120 l 4,0 0,4 -4,0 z M 228,120 l 4,0 0,4 -4,0 z M 232,120 l 4,0 0,4 -4,0 z M 8,124 l 4,0 0,4 -4,0 z M 12,124 l 4,0 0,4 -4,0 z M 20,124 l 4,0 0,4 -4,0 z M 28,124 l 4,0 0,4 -4,0 z M 36,124 l 4,0 0,4 -4,0 z M 40,124 l 4,0 0,4 -4,0 z M 52,124 l 4,0 0,4 -4,0 z M 60,124 l 4,0 0,4 -4,0 z M 64,124 l 4,0 0,4 -4,0 z M 100,124 l 4,0 0,4 -4,0 z M 104,124 l 4,0 0,4 -4,0 z M 108,124 l 4,0 0,4 -4,0 z M 112,124 l 4,0 0,4 -4,0 z M 116,124 l 4,0 0,4 -4,0 z M 124,124 l 4,0 0,4 -4,0 z M 132,124 l 4,0 0,4 -4,0 z M 140,124 l 4,0 0,4 -4,0 z M 144,124 l 4,0 0,4 -4,0 z M 148,124 l 4,0 0,4 -4,0 z M 152,124 l 4,0 0,4 -4,0 z M 156,124 l 4,0 0,4 -4,0 z M 164,124 l 4,0 0,4 -4,0 z M 168,124 l 4,0 0,4 -4,0 z M 172,124 l 4,0 0,4 -4,0 z M 184,124 l 4,0 0,4 -4,0 z M 200,124 l 4,0 0,4 -4,0 z M 204,124 l 4,0 0,4 -4,0 z M 208,124 l 4,0 0,4 -4,0 z M 212,124 l 4,0 0,4 -4,0 z M 220,124 l 4,0 0,4 -4,0 z M 228,124 l 4,0 0,4 -4,0 z M 232,124 l 4,0 0,4 -4,0 z M 240,124 l 4,0 0,4 -4,0 z M 4,128 l 4,0 0,4 -4,0 z M 8,128 l 4,0 0,4 -4,0 z M 12,128 l 4,0 0,4 -4,0 z M 20,128 l 4,0 0,4 -4,0 z M 36,128 l 4,0 0,4 -4,0 z M 40,128 l 4,0 0,4 -4,0 z M 44,128 l 4,0 0,4 -4,0 z M 48,128 l 4,0 0,4 -4,0 z M 52,128 l 4,0 0,4 -4,0 z M 56,128 l 4,0 0,4 -4,0 z M 64,128 l 4,0 0,4 -4,0 z M 80,128 l 4,0 0,4 -4,0 z M 88,128 l 4,0 0,4 -4,0 z M 96,128 l 4,0 0,4 -4,0 z M 100,128 l 4,0 0,4 -4,0 z M 108,128 l 4,0 0,4 -4,0 z M 112,128 l 4,0 0,4 -4,0 z M 116,128 l 4,0 0,4 -4,0 z M 132,128 l 4,0 0,4 -4,0 z M 152,128 l 4,0 0,4 -4,0 z M 168,128 l 4,0 0,4 -4,0 z M 172,128 l 4,0 0,4 -4,0 z M 184,128 l 4,0 0,4 -4,0 z M 200,128 l 4,0 0,4 -4,0 z M 208,128 l 4,0 0,4 -4,0 z M 212,128 l 4,0 0,4 -4,0 z M 228,128 l 4,0 0,4 -4,0 z M 232,128 l 4,0 0,4 -4,0 z M 4,132 l 4,0 0,4 -4,0 z M 8,132 l 4,0 0,4 -4,0 z M 12,132 l 4,0 0,4 -4,0 z M 20,132 l 4,0 0,4 -4,0 z M 24,132 l 4,0 0,4 -4,0 z M 28,132 l 4,0 0,4 -4,0 z M 32,132 l 4,0 0,4 -4,0 z M 36,132 l 4,0 0,4 -4,0 z M 56,132 l 4,0 0,4 -4,0 z M 60,132 l 4,0 0,4 -4,0 z M 64,132 l 4,0 0,4 -4,0 z M 80,132 l 4,0 0,4 -4,0 z M 88,132 l 4,0 0,4 -4,0 z M 108,132 l 4,0 0,4 -4,0 z M 116,132 l 4,0 0,4 -4,0 z M 120,132 l 4,0 0,4 -4,0 z M 124,132 l 4,0 0,4 -4,0 z M 128,132 l 4,0 0,4 -4,0 z M 132,132 l 4,0 0,4 -4,0 z M 140,132 l 4,0 0,4 -4,0 z M 148,132 l 4,0 0,4 -4,0 z M 156,132 l 4,0 0,4 -4,0 z M 160,132 l 4,0 0,4 -4,0 z M 164,132 l 4,0 0,4 -4,0 z M 188,132 l 4,0 0,4 -4,0 z M 196,132 l 4,0 0,4 -4,0 z M 204,132 l 4,0 0,4 -4,0 z M 208,132 l 4,0 0,4 -4,0 z M 212,132 l 4,0 0,4 -4,0 z M 216,132 l 4,0 0,4 -4,0 z M 220,132 l 4,0 0,4 -4,0 z M 224,132 l 4,0 0,4 -4,0 z M 228,132 l 4,0 0,4 -4,0 z M 232,132 l 4,0 0,4 -4,0 z M 236,132 l 4,0 0,4 -4,0 z M 240,132 l 4,0 0,4 -4,0 z M 244,132 l 4,0 0,4 -4,0 z M 12,136 l 4,0 0,4 -4,0 z M 16,136 l 4,0 0,4 -4,0 z M 20,136 l 4,0 0,4 -4,0 z M 24,136 l 4,0 0,4 -4,0 z M 32,136 l 4,0 0,4 -4,0 z M 48,136 l 4,0 0,4 -4,0 z M 56,136 l 4,0 0,4 -4,0 z M 64,136 l 4,0 0,4 -4,0 z M 72,136 l 4,0 0,4 -4,0 z M 76,136 l 4,0 0,4 -4,0 z M 80,136 l 4,0 0,4 -4,0 z M 84,136 l 4,0 0,4 -4,0 z M 88,136 l 4,0 0,4 -4,0 z M 100,136 l 4,0 0,4 -4,0 z M 112,136 l 4,0 0,4 -4,0 z M 120,136 l 4,0 0,4 -4,0 z M 128,136 l 4,0 0,4 -4,0 z M 144,136 l 4,0 0,4 -4,0 z M 148,136 l 4,0 0,4 -4,0 z M 160,136 l 4,0 0,4 -4,0 z M 164,136 l 4,0 0,4 -4,0 z M 168,136 l 4,0 0,4 -4,0 z M 188,136 l 4,0 0,4 -4,0 z M 200,136 l 4,0 0,4 -4,0 z M 204,136 l 4,0 0,4 -4,0 z M 216,136 l 4,0 0,4 -4,0 z M 220,136 l 4,0 0,4 -4,0 z M 224,136 l 4,0 0,4 -4,0 z M 228,136 l 4,0 0,4 -4,0 z M 240,136 l 4,0 0,4 -4,0 z M 244,136 l 4,0 0,4 -4,0 z M 4,140 l 4,0 0,4 -4,0 z M 12,140 l 4,0 0,4 -4,0 z M 16,140 l 4,0 0,4 -4,0 z M 24,140 l 4,0 0,4 -4,0 z M 28,140 l 4,0 0,4 -4,0 z M 40,140 l 4,0 0,4 -4,0 z M 44,140 l 4,0 0,4 -4,0 z M 48,140 l 4,0 0,4 -4,0 z M 64,140 l 4,0 0,4 -4,0 z M 76,140 l 4,0 0,4 -4,0 z M 84,140 l 4,0 0,4 -4,0 z M 100,140 l 4,0 0,4 -4,0 z M 104,140 l 4,0 0,4 -4,0 z M 124,140 l 4,0 0,4 -4,0 z M 128,140 l 4,0 0,4 -4,0 z M 132,140 l 4,0 0,4 -4,0 z M 136,140 l 4,0 0,4 -4,0 z M 144,140 l 4,0 0,4 -4,0 z M 148,140 l 4,0 0,4 -4,0 z M 152,140 l 4,0 0,4 -4,0 z M 176,140 l 4,0 0,4 -4,0 z M 188,140 l 4,0 0,4 -4,0 z M 192,140 l 4,0 0,4 -4,0 z M 204,140 l 4,0 0,4 -4,0 z M 224,140 l 4,0 0,4 -4,0 z M 236,140 l 4,0 0,4 -4,0 z M 20,144 l 4,0 0,4 -4,0 z M 24,144 l 4,0 0,4 -4,0 z M 36,144 l 4,0 0,4 -4,0 z M 48,144 l 4,0 0,4 -4,0 z M 56,144 l 4,0 0,4 -4,0 z M 60,144 l 4,0 0,4 -4,0 z M 64,144 l 4,0 0,4 -4,0 z M 72,144 l 4,0 0,4 -4,0 z M 80,144 l 4,0 0,4 -4,0 z M 88,144 l 4,0 0,4 -4,0 z M 92,144 l 4,0 0,4 -4,0 z M 100,144 l 4,0 0,4 -4,0 z M 108,144 l 4,0 0,4 -4,0 z M 116,144 l 4,0 0,4 -4,0 z M 120,144 l 4,0 0,4 -4,0 z M 124,144 l 4,0 0,4 -4,0 z M 140,144 l 4,0 0,4 -4,0 z M 144,144 l 4,0 0,4 -4,0 z M 148,144 l 4,0 0,4 -4,0 z M 156,144 l 4,0 0,4 -4,0 z M 164,144 l 4,0 0,4 -4,0 z M 172,144 l 4,0 0,4 -4,0 z M 176,144 l 4,0 0,4 -4,0 z M 184,144 l 4,0 0,4 -4,0 z M 200,144 l 4,0 0,4 -4,0 z M 208,144 l 4,0 0,4 -4,0 z M 216,144 l 4,0 0,4 -4,0 z M 220,144 l 4,0 0,4 -4,0 z M 228,144 l 4,0 0,4 -4,0 z M 232,144 l 4,0 0,4 -4,0 z M 244,144 l 4,0 0,4 -4,0 z M 24,148 l 4,0 0,4 -4,0 z M 28,148 l 4,0 0,4 -4,0 z M 36,148 l 4,0 0,4 -4,0 z M 92,148 l 4,0 0,4 -4,0 z M 96,148 l 4,0 0,4 -4,0 z M 100,148 l 4,0 0,4 -4,0 z M 112,148 l 4,0 0,4 -4,0 z M 116,148 l 4,0 0,4 -4,0 z M 128,148 l 4,0 0,4 -4,0 z M 132,148 l 4,0 0,4 -4,0 z M 156,148 l 4,0 0,4 -4,0 z M 160,148 l 4,0 0,4 -4,0 z M 176,148 l 4,0 0,4 -4,0 z M 184,148 l 4,0 0,4 -4,0 z M 188,148 l 4,0 0,4 -4,0 z M 196,148 l 4,0 0,4 -4,0 z M 204,148 l 4,0 0,4 -4,0 z M 208,148 l 4,0 0,4 -4,0 z M 216,148 l 4,0 0,4 -4,0 z M 220,148 l 4,0 0,4 -4,0 z M 224,148 l 4,0 0,4 -4,0 z M 228,148 l 4,0 0,4 -4,0 z M 232,148 l 4,0 0,4 -4,0 z M 236,148 l 4,0 0,4 -4,0 z M 240,148 l 4,0 0,4 -4,0 z M 244,148 l 4,0 0,4 -4,0 z M 4,152 l 4,0 0,4 -4,0 z M 12,152 l 4,0 0,4 -4,0 z M 16,152 l 4,0 0,4 -4,0 z M 20,152 l 4,0 0,4 -4,0 z M 40,152 l 4,0 0,4 -4,0 z M 44,152 l 4,0 0,4 -4,0 z M 48,152 l 4,0 0,4 -4,0 z M 56,152 l 4,0 0,4 -4,0 z M 64,152 l 4,0 0,4 -4,0 z M 72,152 l 4,0 0,4 -4,0 z M 88,152 l 4,0 0,4 -4,0 z M 96,152 l 4,0 0,4 -4,0 z M 100,152 l 4,0 0,4 -4,0 z M 104,152 l 4,0 0,4 -4,0 z M 112,152 l 4,0 0,4 -4,0 z M 116,152 l 4,0 0,4 -4,0 z M 120,152 l 4,0 0,4 -4,0 z M 128,152 l 4,0 0,4 -4,0 z M 136,152 l 4,0 0,4 -4,0 z M 148,152 l 4,0 0,4 -4,0 z M 152,152 l 4,0 0,4 -4,0 z M 160,152 l 4,0 0,4 -4,0 z M 164,152 l 4,0 0,4 -4,0 z M 172,152 l 4,0 0,4 -4,0 z M 184,152 l 4,0 0,4 -4,0 z M 188,152 l 4,0 0,4 -4,0 z M 192,152 l 4,0 0,4 -4,0 z M 204,152 l 4,0 0,4 -4,0 z M 220,152 l 4,0 0,4 -4,0 z M 224,152 l 4,0 0,4 -4,0 z M 232,152 l 4,0 0,4 -4,0 z M 240,152 l 4,0 0,4 -4,0 z M 4,156 l 4,0 0,4 -4,0 z M 8,156 l 4,0 0,4 -4,0 z M 12,156 l 4,0 0,4 -4,0 z M 16,156 l 4,0 0,4 -4,0 z M 24,156 l 4,0 0,4 -4,0 z M 28,156 l 4,0 0,4 -4,0 z M 32,156 l 4,0 0,4 -4,0 z M 40,156 l 4,0 0,4 -4,0 z M 48,156 l 4,0 0,4 -4,0 z M 52,156 l 4,0 0,4 -4,0 z M 56,156 l 4,0 0,4 -4,0 z M 60,156 l 4,0 0,4 -4,0 z M 64,156 l 4,0 0,4 -4,0 z M 68,156 l 4,0 0,4 -4,0 z M 72,156 l 4,0 0,4 -4,0 z M 84,156 l 4,0 0,4 -4,0 z M 88,156 l 4,0 0,4 -4,0 z M 96,156 l 4,0 0,4 -4,0 z M 104,156 l 4,0 0,4 -4,0 z M 120,156 l 4,0 0,4 -4,0 z M 124,156 l 4,0 0,4 -4,0 z M 136,156 l 4,0 0,4 -4,0 z M 140,156 l 4,0 0,4 -4,0 z M 144,156 l 4,0 0,4 -4,0 z M 148,156 l 4,0 0,4 -4,0 z M 160,156 l 4,0 0,4 -4,0 z M 164,156 l 4,0 0,4 -4,0 z M 168,156 l 4,0 0,4 -4,0 z M 192,156 l 4,0 0,4 -4,0 z M 196,156 l 4,0 0,4 -4,0 z M 208,156 l 4,0 0,4 -4,0 z M 212,156 l 4,0 0,4 -4,0 z M 216,156 l 4,0 0,4 -4,0 z M 228,156 l 4,0 0,4 -4,0 z M 236,156 l 4,0 0,4 -4,0 z M 8,160 l 4,0 0,4 -4,0 z M 12,160 l 4,0 0,4 -4,0 z M 16,160 l 4,0 0,4 -4,0 z M 20,160 l 4,0 0,4 -4,0 z M 24,160 l 4,0 0,4 -4,0 z M 32,160 l 4,0 0,4 -4,0 z M 56,160 l 4,0 0,4 -4,0 z M 72,160 l 4,0 0,4 -4,0 z M 76,160 l 4,0 0,4 -4,0 z M 88,160 l 4,0 0,4 -4,0 z M 92,160 l 4,0 0,4 -4,0 z M 96,160 l 4,0 0,4 -4,0 z M 100,160 l 4,0 0,4 -4,0 z M 104,160 l 4,0 0,4 -4,0 z M 108,160 l 4,0 0,4 -4,0 z M 112,160 l 4,0 0,4 -4,0 z M 116,160 l 4,0 0,4 -4,0 z M 128,160 l 4,0 0,4 -4,0 z M 132,160 l 4,0 0,4 -4,0 z M 152,160 l 4,0 0,4 -4,0 z M 168,160 l 4,0 0,4 -4,0 z M 172,160 l 4,0 0,4 -4,0 z M 180,160 l 4,0 0,4 -4,0 z M 192,160 l 4,0 0,4 -4,0 z M 196,160 l 4,0 0,4 -4,0 z M 200,160 l 4,0 0,4 -4,0 z M 204,160 l 4,0 0,4 -4,0 z M 240,160 l 4,0 0,4 -4,0 z M 16,164 l 4,0 0,4 -4,0 z M 24,164 l 4,0 0,4 -4,0 z M 28,164 l 4,0 0,4 -4,0 z M 32,164 l 4,0 0,4 -4,0 z M 36,164 l 4,0 0,4 -4,0 z M 44,164 l 4,0 0,4 -4,0 z M 48,164 l 4,0 0,4 -4,0 z M 72,164 l 4,0 0,4 -4,0 z M 80,164 l 4,0 0,4 -4,0 z M 92,164 l 4,0 0,4 -4,0 z M 96,164 l 4,0 0,4 -4,0 z M 100,164 l 4,0 0,4 -4,0 z M 108,164 l 4,0 0,4 -4,0 z M 112,164 l 4,0 0,4 -4,0 z M 116,164 l 4,0 0,4 -4,0 z M 120,164 l 4,0 0,4 -4,0 z M 136,164 l 4,0 0,4 -4,0 z M 140,164 l 4,0 0,4 -4,0 z M 156,164 l 4,0 0,4 -4,0 z M 160,164 l 4,0 0,4 -4,0 z M 176,164 l 4,0 0,4 -4,0 z M 180,164 l 4,0 0,4 -4,0 z M 184,164 l 4,0 0,4 -4,0 z M 188,164 l 4,0 0,4 -4,0 z M 196,164 l 4,0 0,4 -4,0 z M 200,164 l 4,0 0,4 -4,0 z M 212,164 l 4,0 0,4 -4,0 z M 220,164 l 4,0 0,4 -4,0 z M 236,164 l 4,0 0,4 -4,0 z M 244,164 l 4,0 0,4 -4,0 z M 4,168 l 4,0 0,4 -4,0 z M 20,168 l 4,0 0,4 -4,0 z M 40,168 l 4,0 0,4 -4,0 z M 52,168 l 4,0 0,4 -4,0 z M 56,168 l 4,0 0,4 -4,0 z M 60,168 l 4,0 0,4 -4,0 z M 64,168 l 4,0 0,4 -4,0 z M 68,168 l 4,0 0,4 -4,0 z M 72,168 l 4,0 0,4 -4,0 z M 76,168 l 4,0 0,4 -4,0 z M 80,168 l 4,0 0,4 -4,0 z M 88,168 l 4,0 0,4 -4,0 z M 92,168 l 4,0 0,4 -4,0 z M 96,168 l 4,0 0,4 -4,0 z M 104,168 l 4,0 0,4 -4,0 z M 108,168 l 4,0 0,4 -4,0 z M 128,168 l 4,0 0,4 -4,0 z M 132,168 l 4,0 0,4 -4,0 z M 136,168 l 4,0 0,4 -4,0 z M 148,168 l 4,0 0,4 -4,0 z M 152,168 l 4,0 0,4 -4,0 z M 156,168 l 4,0 0,4 -4,0 z M 160,168 l 4,0 0,4 -4,0 z M 164,168 l 4,0 0,4 -4,0 z M 168,168 l 4,0 0,4 -4,0 z M 172,168 l 4,0 0,4 -4,0 z M 184,168 l 4,0 0,4 -4,0 z M 204,168 l 4,0 0,4 -4,0 z M 216,168 l 4,0 0,4 -4,0 z M 4,172 l 4,0 0,4 -4,0 z M 8,172 l 4,0 0,4 -4,0 z M 16,172 l 4,0 0,4 -4,0 z M 20,172 l 4,0 0,4 -4,0 z M 28,172 l 4,0 0,4 -4,0 z M 32,172 l 4,0 0,4 -4,0 z M 36,172 l 4,0 0,4 -4,0 z M 48,172 l 4,0 0,4 -4,0 z M 52,172 l 4,0 0,4 -4,0 z M 60,172 l 4,0 0,4 -4,0 z M 64,172 l 4,0 0,4 -4,0 z M 68,172 l 4,0 0,4 -4,0 z M 72,172 l 4,0 0,4 -4,0 z M 76,172 l 4,0 0,4 -4,0 z M 80,172 l 4,0 0,4 -4,0 z M 100,172 l 4,0 0,4 -4,0 z M 104,172 l 4,0 0,4 -4,0 z M 124,172 l 4,0 0,4 -4,0 z M 128,172 l 4,0 0,4 -4,0 z M 132,172 l 4,0 0,4 -4,0 z M 148,172 l 4,0 0,4 -4,0 z M 152,172 l 4,0 0,4 -4,0 z M 168,172 l 4,0 0,4 -4,0 z M 176,172 l 4,0 0,4 -4,0 z M 192,172 l 4,0 0,4 -4,0 z M 196,172 l 4,0 0,4 -4,0 z M 200,172 l 4,0 0,4 -4,0 z M 204,172 l 4,0 0,4 -4,0 z M 208,172 l 4,0 0,4 -4,0 z M 220,172 l 4,0 0,4 -4,0 z M 228,172 l 4,0 0,4 -4,0 z M 232,172 l 4,0 0,4 -4,0 z M 240,172 l 4,0 0,4 -4,0 z M 244,172 l 4,0 0,4 -4,0 z M 4,176 l 4,0 0,4 -4,0 z M 16,176 l 4,0 0,4 -4,0 z M 20,176 l 4,0 0,4 -4,0 z M 24,176 l 4,0 0,4 -4,0 z M 40,176 l 4,0 0,4 -4,0 z M 48,176 l 4,0 0,4 -4,0 z M 56,176 l 4,0 0,4 -4,0 z M 60,176 l 4,0 0,4 -4,0 z M 64,176 l 4,0 0,4 -4,0 z M 84,176 l 4,0 0,4 -4,0 z M 88,176 l 4,0 0,4 -4,0 z M 92,176 l 4,0 0,4 -4,0 z M 100,176 l 4,0 0,4 -4,0 z M 116,176 l 4,0 0,4 -4,0 z M 128,176 l 4,0 0,4 -4,0 z M 148,176 l 4,0 0,4 -4,0 z M 160,176 l 4,0 0,4 -4,0 z M 172,176 l 4,0 0,4 -4,0 z M 180,176 l 4,0 0,4 -4,0 z M 184,176 l 4,0 0,4 -4,0 z M 204,176 l 4,0 0,4 -4,0 z M 208,176 l 4,0 0,4 -4,0 z M 216,176 l 4,0 0,4 -4,0 z M 220,176 l 4,0 0,4 -4,0 z M 240,176 l 4,0 0,4 -4,0 z M 244,176 l 4,0 0,4 -4,0 z M 4,180 l 4,0 0,4 -4,0 z M 8,180 l 4,0 0,4 -4,0 z M 12,180 l 4,0 0,4 -4,0 z M 16,180 l 4,0 0,4 -4,0 z M 28,180 l 4,0 0,4 -4,0 z M 40,180 l 4,0 0,4 -4,0 z M 52,180 l 4,0 0,4 -4,0 z M 60,180 l 4,0 0,4 -4,0 z M 64,180 l 4,0 0,4 -4,0 z M 68,180 l 4,0 0,4 -4,0 z M 72,180 l 4,0 0,4 -4,0 z M 76,180 l 4,0 0,4 -4,0 z M 84,180 l 4,0 0,4 -4,0 z M 92,180 l 4,0 0,4 -4,0 z M 100,180 l 4,0 0,4 -4,0 z M 108,180 l 4,0 0,4 -4,0 z M 112,180 l 4,0 0,4 -4,0 z M 116,180 l 4,0 0,4 -4,0 z M 120,180 l 4,0 0,4 -4,0 z M 124,180 l 4,0 0,4 -4,0 z M 132,180 l 4,0 0,4 -4,0 z M 136,180 l 4,0 0,4 -4,0 z M 148,180 l 4,0 0,4 -4,0 z M 168,180 l 4,0 0,4 -4,0 z M 176,180 l 4,0 0,4 -4,0 z M 180,180 l 4,0 0,4 -4,0 z M 184,180 l 4,0 0,4 -4,0 z M 192,180 l 4,0 0,4 -4,0 z M 208,180 l 4,0 0,4 -4,0 z M 220,180 l 4,0 0,4 -4,0 z M 224,180 l 4,0 0,4 -4,0 z M 228,180 l 4,0 0,4 -4,0 z M 244,180 l 4,0 0,4 -4,0 z M 4,184 l 4,0 0,4 -4,0 z M 20,184 l 4,0 0,4 -4,0 z M 48,184 l 4,0 0,4 -4,0 z M 52,184 l 4,0 0,4 -4,0 z M 64,184 l 4,0 0,4 -4,0 z M 72,184 l 4,0 0,4 -4,0 z M 84,184 l 4,0 0,4 -4,0 z M 92,184 l 4,0 0,4 -4,0 z M 96,184 l 4,0 0,4 -4,0 z M 104,184 l 4,0 0,4 -4,0 z M 112,184 l 4,0 0,4 -4,0 z M 120,184 l 4,0 0,4 -4,0 z M 124,184 l 4,0 0,4 -4,0 z M 128,184 l 4,0 0,4 -4,0 z M 140,184 l 4,0 0,4 -4,0 z M 156,184 l 4,0 0,4 -4,0 z M 168,184 l 4,0 0,4 -4,0 z M 176,184 l 4,0 0,4 -4,0 z M 196,184 l 4,0 0,4 -4,0 z M 208,184 l 4,0 0,4 -4,0 z M 220,184 l 4,0 0,4 -4,0 z M 224,184 l 4,0 0,4 -4,0 z M 4,188 l 4,0 0,4 -4,0 z M 8,188 l 4,0 0,4 -4,0 z M 12,188 l 4,0 0,4 -4,0 z M 16,188 l 4,0 0,4 -4,0 z M 28,188 l 4,0 0,4 -4,0 z M 40,188 l 4,0 0,4 -4,0 z M 48,188 l 4,0 0,4 -4,0 z M 52,188 l 4,0 0,4 -4,0 z M 56,188 l 4,0 0,4 -4,0 z M 68,188 l 4,0 0,4 -4,0 z M 100,188 l 4,0 0,4 -4,0 z M 112,188 l 4,0 0,4 -4,0 z M 116,188 l 4,0 0,4 -4,0 z M 120,188 l 4,0 0,4 -4,0 z M 124,188 l 4,0 0,4 -4,0 z M 128,188 l 4,0 0,4 -4,0 z M 132,188 l 4,0 0,4 -4,0 z M 148,188 l 4,0 0,4 -4,0 z M 152,188 l 4,0 0,4 -4,0 z M 156,188 l 4,0 0,4 -4,0 z M 160,188 l 4,0 0,4 -4,0 z M 168,188 l 4,0 0,4 -4,0 z M 172,188 l 4,0 0,4 -4,0 z M 176,188 l 4,0 0,4 -4,0 z M 200,188 l 4,0 0,4 -4,0 z M 204,188 l 4,0 0,4 -4,0 z M 208,188 l 4,0 0,4 -4,0 z M 220,188 l 4,0 0,4 -4,0 z M 228,188 l 4,0 0,4 -4,0 z M 240,188 l 4,0 0,4 -4,0 z M 4,192 l 4,0 0,4 -4,0 z M 16,192 l 4,0 0,4 -4,0 z M 24,192 l 4,0 0,4 -4,0 z M 36,192 l 4,0 0,4 -4,0 z M 40,192 l 4,0 0,4 -4,0 z M 52,192 l 4,0 0,4 -4,0 z M 60,192 l 4,0 0,4 -4,0 z M 96,192 l 4,0 0,4 -4,0 z M 100,192 l 4,0 0,4 -4,0 z M 112,192 l 4,0 0,4 -4,0 z M 120,192 l 4,0 0,4 -4,0 z M 144,192 l 4,0 0,4 -4,0 z M 148,192 l 4,0 0,4 -4,0 z M 152,192 l 4,0 0,4 -4,0 z M 168,192 l 4,0 0,4 -4,0 z M 172,192 l 4,0 0,4 -4,0 z M 176,192 l 4,0 0,4 -4,0 z M 180,192 l 4,0 0,4 -4,0 z M 184,192 l 4,0 0,4 -4,0 z M 200,192 l 4,0 0,4 -4,0 z M 216,192 l 4,0 0,4 -4,0 z M 220,192 l 4,0 0,4 -4,0 z M 224,192 l 4,0 0,4 -4,0 z M 228,192 l 4,0 0,4 -4,0 z M 232,192 l 4,0 0,4 -4,0 z M 236,192 l 4,0 0,4 -4,0 z M 12,196 l 4,0 0,4 -4,0 z M 16,196 l 4,0 0,4 -4,0 z M 24,196 l 4,0 0,4 -4,0 z M 28,196 l 4,0 0,4 -4,0 z M 32,196 l 4,0 0,4 -4,0 z M 36,196 l 4,0 0,4 -4,0 z M 44,196 l 4,0 0,4 -4,0 z M 60,196 l 4,0 0,4 -4,0 z M 64,196 l 4,0 0,4 -4,0 z M 88,196 l 4,0 0,4 -4,0 z M 96,196 l 4,0 0,4 -4,0 z M 100,196 l 4,0 0,4 -4,0 z M 104,196 l 4,0 0,4 -4,0 z M 108,196 l 4,0 0,4 -4,0 z M 120,196 l 4,0 0,4 -4,0 z M 124,196 l 4,0 0,4 -4,0 z M 140,196 l 4,0 0,4 -4,0 z M 144,196 l 4,0 0,4 -4,0 z M 148,196 l 4,0 0,4 -4,0 z M 156,196 l 4,0 0,4 -4,0 z M 160,196 l 4,0 0,4 -4,0 z M 176,196 l 4,0 0,4 -4,0 z M 184,196 l 4,0 0,4 -4,0 z M 192,196 l 4,0 0,4 -4,0 z M 196,196 l 4,0 0,4 -4,0 z M 204,196 l 4,0 0,4 -4,0 z M 208,196 l 4,0 0,4 -4,0 z M 224,196 l 4,0 0,4 -4,0 z M 228,196 l 4,0 0,4 -4,0 z M 232,196 l 4,0 0,4 -4,0 z M 236,196 l 4,0 0,4 -4,0 z M 240,196 l 4,0 0,4 -4,0 z M 244,196 l 4,0 0,4 -4,0 z M 4,200 l 4,0 0,4 -4,0 z M 8,200 l 4,0 0,4 -4,0 z M 12,200 l 4,0 0,4 -4,0 z M 20,200 l 4,0 0,4 -4,0 z M 32,200 l 4,0 0,4 -4,0 z M 40,200 l 4,0 0,4 -4,0 z M 48,200 l 4,0 0,4 -4,0 z M 64,200 l 4,0 0,4 -4,0 z M 76,200 l 4,0 0,4 -4,0 z M 80,200 l 4,0 0,4 -4,0 z M 84,200 l 4,0 0,4 -4,0 z M 108,200 l 4,0 0,4 -4,0 z M 112,200 l 4,0 0,4 -4,0 z M 124,200 l 4,0 0,4 -4,0 z M 128,200 l 4,0 0,4 -4,0 z M 144,200 l 4,0 0,4 -4,0 z M 148,200 l 4,0 0,4 -4,0 z M 152,200 l 4,0 0,4 -4,0 z M 156,200 l 4,0 0,4 -4,0 z M 160,200 l 4,0 0,4 -4,0 z M 164,200 l 4,0 0,4 -4,0 z M 180,200 l 4,0 0,4 -4,0 z M 184,200 l 4,0 0,4 -4,0 z M 188,200 l 4,0 0,4 -4,0 z M 196,200 l 4,0 0,4 -4,0 z M 200,200 l 4,0 0,4 -4,0 z M 216,200 l 4,0 0,4 -4,0 z M 12,204 l 4,0 0,4 -4,0 z M 16,204 l 4,0 0,4 -4,0 z M 20,204 l 4,0 0,4 -4,0 z M 24,204 l 4,0 0,4 -4,0 z M 28,204 l 4,0 0,4 -4,0 z M 36,204 l 4,0 0,4 -4,0 z M 40,204 l 4,0 0,4 -4,0 z M 48,204 l 4,0 0,4 -4,0 z M 60,204 l 4,0 0,4 -4,0 z M 64,204 l 4,0 0,4 -4,0 z M 76,204 l 4,0 0,4 -4,0 z M 104,204 l 4,0 0,4 -4,0 z M 124,204 l 4,0 0,4 -4,0 z M 136,204 l 4,0 0,4 -4,0 z M 144,204 l 4,0 0,4 -4,0 z M 148,204 l 4,0 0,4 -4,0 z M 156,204 l 4,0 0,4 -4,0 z M 168,204 l 4,0 0,4 -4,0 z M 176,204 l 4,0 0,4 -4,0 z M 184,204 l 4,0 0,4 -4,0 z M 188,204 l 4,0 0,4 -4,0 z M 200,204 l 4,0 0,4 -4,0 z M 204,204 l 4,0 0,4 -4,0 z M 220,204 l 4,0 0,4 -4,0 z M 232,204 l 4,0 0,4 -4,0 z M 236,204 l 4,0 0,4 -4,0 z M 4,208 l 4,0 0,4 -4,0 z M 8,208 l 4,0 0,4 -4,0 z M 12,208 l 4,0 0,4 -4,0 z M 20,208 l 4,0 0,4 -4,0 z M 32,208 l 4,0 0,4 -4,0 z M 40,208 l 4,0 0,4 -4,0 z M 56,208 l 4,0 0,4 -4,0 z M 64,208 l 4,0 0,4 -4,0 z M 72,208 l 4,0 0,4 -4,0 z M 80,208 l 4,0 0,4 -4,0 z M 84,208 l 4,0 0,4 -4,0 z M 88,208 l 4,0 0,4 -4,0 z M 92,208 l 4,0 0,4 -4,0 z M 100,208 l 4,0 0,4 -4,0 z M 104,208 l 4,0 0,4 -4,0 z M 108,208 l 4,0 0,4 -4,0 z M 116,208 l 4,0 0,4 -4,0 z M 124,208 l 4,0 0,4 -4,0 z M 136,208 l 4,0 0,4 -4,0 z M 140,208 l 4,0 0,4 -4,0 z M 144,208 l 4,0 0,4 -4,0 z M 148,208 l 4,0 0,4 -4,0 z M 152,208 l 4,0 0,4 -4,0 z M 156,208 l 4,0 0,4 -4,0 z M 164,208 l 4,0 0,4 -4,0 z M 172,208 l 4,0 0,4 -4,0 z M 176,208 l 4,0 0,4 -4,0 z M 184,208 l 4,0 0,4 -4,0 z M 192,208 l 4,0 0,4 -4,0 z M 200,208 l 4,0 0,4 -4,0 z M 224,208 l 4,0 0,4 -4,0 z M 228,208 l 4,0 0,4 -4,0 z M 232,208 l 4,0 0,4 -4,0 z M 4,212 l 4,0 0,4 -4,0 z M 8,212 l 4,0 0,4 -4,0 z M 12,212 l 4,0 0,4 -4,0 z M 16,212 l 4,0 0,4 -4,0 z M 28,212 l 4,0 0,4 -4,0 z M 32,212 l 4,0 0,4 -4,0 z M 36,212 l 4,0 0,4 -4,0 z M 44,212 l 4,0 0,4 -4,0 z M 48,212 l 4,0 0,4 -4,0 z M 60,212 l 4,0 0,4 -4,0 z M 64,212 l 4,0 0,4 -4,0 z M 68,212 l 4,0 0,4 -4,0 z M 80,212 l 4,0 0,4 -4,0 z M 84,212 l 4,0 0,4 -4,0 z M 96,212 l 4,0 0,4 -4,0 z M 100,212 l 4,0 0,4 -4,0 z M 112,212 l 4,0 0,4 -4,0 z M 116,212 l 4,0 0,4 -4,0 z M 120,212 l 4,0 0,4 -4,0 z M 124,212 l 4,0 0,4 -4,0 z M 128,212 l 4,0 0,4 -4,0 z M 132,212 l 4,0 0,4 -4,0 z M 136,212 l 4,0 0,4 -4,0 z M 140,212 l 4,0 0,4 -4,0 z M 152,212 l 4,0 0,4 -4,0 z M 156,212 l 4,0 0,4 -4,0 z M 160,212 l 4,0 0,4 -4,0 z M 164,212 l 4,0 0,4 -4,0 z M 176,212 l 4,0 0,4 -4,0 z M 192,212 l 4,0 0,4 -4,0 z M 204,212 l 4,0 0,4 -4,0 z M 212,212 l 4,0 0,4 -4,0 z M 216,212 l 4,0 0,4 -4,0 z M 220,212 l 4,0 0,4 -4,0 z M 224,212 l 4,0 0,4 -4,0 z M 228,212 l 4,0 0,4 -4,0 z M 240,212 l 4,0 0,4 -4,0 z M 36,216 l 4,0 0,4 -4,0 z M 40,216 l 4,0 0,4 -4,0 z M 44,216 l 4,0 0,4 -4,0 z M 48,216 l 4,0 0,4 -4,0 z M 52,216 l 4,0 0,4 -4,0 z M 64,216 l 4,0 0,4 -4,0 z M 72,216 l 4,0 0,4 -4,0 z M 96,216 l 4,0 0,4 -4,0 z M 100,216 l 4,0 0,4 -4,0 z M 108,216 l 4,0 0,4 -4,0 z M 116,216 l 4,0 0,4 -4,0 z M 132,216 l 4,0 0,4 -4,0 z M 136,216 l 4,0 0,4 -4,0 z M 144,216 l 4,0 0,4 -4,0 z M 148,216 l 4,0 0,4 -4,0 z M 160,216 l 4,0 0,4 -4,0 z M 164,216 l 4,0 0,4 -4,0 z M 176,216 l 4,0 0,4 -4,0 z M 180,216 l 4,0 0,4 -4,0 z M 208,216 l 4,0 0,4 -4,0 z M 212,216 l 4,0 0,4 -4,0 z M 228,216 l 4,0 0,4 -4,0 z M 232,216 l 4,0 0,4 -4,0 z M 236,216 l 4,0 0,4 -4,0 z M 244,216 l 4,0 0,4 -4,0 z M 4,220 l 4,0 0,4 -4,0 z M 8,220 l 4,0 0,4 -4,0 z M 12,220 l 4,0 0,4 -4,0 z M 16,220 l 4,0 0,4 -4,0 z M 20,220 l 4,0 0,4 -4,0 z M 24,220 l 4,0 0,4 -4,0 z M 28,220 l 4,0 0,4 -4,0 z M 36,220 l 4,0 0,4 -4,0 z M 44,220 l 4,0 0,4 -4,0 z M 48,220 l 4,0 0,4 -4,0 z M 60,220 l 4,0 0,4 -4,0 z M 76,220 l 4,0 0,4 -4,0 z M 80,220 l 4,0 0,4 -4,0 z M 84,220 l 4,0 0,4 -4,0 z M 108,220 l 4,0 0,4 -4,0 z M 112,220 l 4,0 0,4 -4,0 z M 116,220 l 4,0 0,4 -4,0 z M 124,220 l 4,0 0,4 -4,0 z M 132,220 l 4,0 0,4 -4,0 z M 140,220 l 4,0 0,4 -4,0 z M 144,220 l 4,0 0,4 -4,0 z M 148,220 l 4,0 0,4 -4,0 z M 152,220 l 4,0 0,4 -4,0 z M 156,220 l 4,0 0,4 -4,0 z M 160,220 l 4,0 0,4 -4,0 z M 164,220 l 4,0 0,4 -4,0 z M 168,220 l 4,0 0,4 -4,0 z M 192,220 l 4,0 0,4 -4,0 z M 196,220 l 4,0 0,4 -4,0 z M 204,220 l 4,0 0,4 -4,0 z M 208,220 l 4,0 0,4 -4,0 z M 212,220 l 4,0 0,4 -4,0 z M 220,220 l 4,0 0,4 -4,0 z M 228,220 l 4,0 0,4 -4,0 z M 232,220 l 4,0 0,4 -4,0 z M 236,220 l 4,0 0,4 -4,0 z M 240,220 l 4,0 0,4 -4,0 z M 4,224 l 4,0 0,4 -4,0 z M 28,224 l 4,0 0,4 -4,0 z M 40,224 l 4,0 0,4 -4,0 z M 44,224 l 4,0 0,4 -4,0 z M 48,224 l 4,0 0,4 -4,0 z M 60,224 l 4,0 0,4 -4,0 z M 72,224 l 4,0 0,4 -4,0 z M 80,224 l 4,0 0,4 -4,0 z M 88,224 l 4,0 0,4 -4,0 z M 96,224 l 4,0 0,4 -4,0 z M 100,224 l 4,0 0,4 -4,0 z M 116,224 l 4,0 0,4 -4,0 z M 132,224 l 4,0 0,4 -4,0 z M 144,224 l 4,0 0,4 -4,0 z M 164,224 l 4,0 0,4 -4,0 z M 168,224 l 4,0 0,4 -4,0 z M 172,224 l 4,0 0,4 -4,0 z M 180,224 l 4,0 0,4 -4,0 z M 192,224 l 4,0 0,4 -4,0 z M 200,224 l 4,0 0,4 -4,0 z M 208,224 l 4,0 0,4 -4,0 z M 212,224 l 4,0 0,4 -4,0 z M 228,224 l 4,0 0,4 -4,0 z M 236,224 l 4,0 0,4 -4,0 z M 244,224 l 4,0 0,4 -4,0 z M 4,228 l 4,0 0,4 -4,0 z M 12,228 l 4,0 0,4 -4,0 z M 16,228 l 4,0 0,4 -4,0 z M 20,228 l 4,0 0,4 -4,0 z M 28,228 l 4,0 0,4 -4,0 z M 36,228 l 4,0 0,4 -4,0 z M 52,228 l 4,0 0,4 -4,0 z M 56,228 l 4,0 0,4 -4,0 z M 60,228 l 4,0 0,4 -4,0 z M 72,228 l 4,0 0,4 -4,0 z M 76,228 l 4,0 0,4 -4,0 z M 96,228 l 4,0 0,4 -4,0 z M 100,228 l 4,0 0,4 -4,0 z M 116,228 l 4,0 0,4 -4,0 z M 120,228 l 4,0 0,4 -4,0 z M 124,228 l 4,0 0,4 -4,0 z M 128,228 l 4,0 0,4 -4,0 z M 132,228 l 4,0 0,4 -4,0 z M 136,228 l 4,0 0,4 -4,0 z M 140,228 l 4,0 0,4 -4,0 z M 144,228 l 4,0 0,4 -4,0 z M 148,228 l 4,0 0,4 -4,0 z M 160,228 l 4,0 0,4 -4,0 z M 176,228 l 4,0 0,4 -4,0 z M 184,228 l 4,0 0,4 -4,0 z M 188,228 l 4,0 0,4 -4,0 z M 208,228 l 4,0 0,4 -4,0 z M 212,228 l 4,0 0,4 -4,0 z M 216,228 l 4,0 0,4 -4,0 z M 220,228 l 4,0 0,4 -4,0 z M 224,228 l 4,0 0,4 -4,0 z M 228,228 l 4,0 0,4 -4,0 z M 236,228 l 4,0 0,4 -4,0 z M 240,228 l 4,0 0,4 -4,0 z M 244,228 l 4,0 0,4 -4,0 z M 4,232 l 4,0 0,4 -4,0 z M 12,232 l 4,0 0,4 -4,0 z M 16,232 l 4,0 0,4 -4,0 z M 20,232 l 4,0 0,4 -4,0 z M 28,232 l 4,0 0,4 -4,0 z M 36,232 l 4,0 0,4 -4,0 z M 48,232 l 4,0 0,4 -4,0 z M 52,232 l 4,0 0,4 -4,0 z M 64,232 l 4,0 0,4 -4,0 z M 68,232 l 4,0 0,4 -4,0 z M 72,232 l 4,0 0,4 -4,0 z M 76,232 l 4,0 0,4 -4,0 z M 96,232 l 4,0 0,4 -4,0 z M 104,232 l 4,0 0,4 -4,0 z M 108,232 l 4,0 0,4 -4,0 z M 112,232 l 4,0 0,4 -4,0 z M 128,232 l 4,0 0,4 -4,0 z M 132,232 l 4,0 0,4 -4,0 z M 140,232 l 4,0 0,4 -4,0 z M 156,232 l 4,0 0,4 -4,0 z M 160,232 l 4,0 0,4 -4,0 z M 164,232 l 4,0 0,4 -4,0 z M 188,232 l 4,0 0,4 -4,0 z M 216,232 l 4,0 0,4 -4,0 z M 224,232 l 4,0 0,4 -4,0 z M 232,232 l 4,0 0,4 -4,0 z M 244,232 l 4,0 0,4 -4,0 z M 4,236 l 4,0 0,4 -4,0 z M 12,236 l 4,0 0,4 -4,0 z M 16,236 l 4,0 0,4 -4,0 z M 20,236 l 4,0 0,4 -4,0 z M 28,236 l 4,0 0,4 -4,0 z M 36,236 l 4,0 0,4 -4,0 z M 40,236 l 4,0 0,4 -4,0 z M 48,236 l 4,0 0,4 -4,0 z M 56,236 l 4,0 0,4 -4,0 z M 64,236 l 4,0 0,4 -4,0 z M 68,236 l 4,0 0,4 -4,0 z M 72,236 l 4,0 0,4 -4,0 z M 76,236 l 4,0 0,4 -4,0 z M 100,236 l 4,0 0,4 -4,0 z M 104,236 l 4,0 0,4 -4,0 z M 116,236 l 4,0 0,4 -4,0 z M 120,236 l 4,0 0,4 -4,0 z M 128,236 l 4,0 0,4 -4,0 z M 136,236 l 4,0 0,4 -4,0 z M 140,236 l 4,0 0,4 -4,0 z M 144,236 l 4,0 0,4 -4,0 z M 148,236 l 4,0 0,4 -4,0 z M 156,236 l 4,0 0,4 -4,0 z M 168,236 l 4,0 0,4 -4,0 z M 176,236 l 4,0 0,4 -4,0 z M 184,236 l 4,0 0,4 -4,0 z M 188,236 l 4,0 0,4 -4,0 z M 192,236 l 4,0 0,4 -4,0 z M 196,236 l 4,0 0,4 -4,0 z M 204,236 l 4,0 0,4 -4,0 z M 208,236 l 4,0 0,4 -4,0 z M 220,236 l 4,0 0,4 -4,0 z M 224,236 l 4,0 0,4 -4,0 z M 228,236 l 4,0 0,4 -4,0 z M 236,236 l 4,0 0,4 -4,0 z M 244,236 l 4,0 0,4 -4,0 z M 4,240 l 4,0 0,4 -4,0 z M 28,240 l 4,0 0,4 -4,0 z M 36,240 l 4,0 0,4 -4,0 z M 44,240 l 4,0 0,4 -4,0 z M 64,240 l 4,0 0,4 -4,0 z M 88,240 l 4,0 0,4 -4,0 z M 92,240 l 4,0 0,4 -4,0 z M 104,240 l 4,0 0,4 -4,0 z M 116,240 l 4,0 0,4 -4,0 z M 120,240 l 4,0 0,4 -4,0 z M 124,240 l 4,0 0,4 -4,0 z M 128,240 l 4,0 0,4 -4,0 z M 140,240 l 4,0 0,4 -4,0 z M 144,240 l 4,0 0,4 -4,0 z M 152,240 l 4,0 0,4 -4,0 z M 172,240 l 4,0 0,4 -4,0 z M 184,240 l 4,0 0,4 -4,0 z M 188,240 l 4,0 0,4 -4,0 z M 192,240 l 4,0 0,4 -4,0 z M 200,240 l 4,0 0,4 -4,0 z M 212,240 l 4,0 0,4 -4,0 z M 216,240 l 4,0 0,4 -4,0 z M 220,240 l 4,0 0,4 -4,0 z M 232,240 l 4,0 0,4 -4,0 z M 236,240 l 4,0 0,4 -4,0 z M 4,244 l 4,0 0,4 -4,0 z M 8,244 l 4,0 0,4 -4,0 z M 12,244 l 4,0 0,4 -4,0 z M 16,244 l 4,0 0,4 -4,0 z M 20,244 l 4,0 0,4 -4,0 z M 24,244 l 4,0 0,4 -4,0 z M 28,244 l 4,0 0,4 -4,0 z M 36,244 l 4,0 0,4 -4,0 z M 40,244 l 4,0 0,4 -4,0 z M 52,244 l 4,0 0,4 -4,0 z M 60,244 l 4,0 0,4 -4,0 z M 72,244 l 4,0 0,4 -4,0 z M 76,244 l 4,0 0,4 -4,0 z M 80,244 l 4,0 0,4 -4,0 z M 92,244 l 4,0 0,4 -4,0 z M 100,244 l 4,0 0,4 -4,0 z M 104,244 l 4,0 0,4 -4,0 z M 128,244 l 4,0 0,4 -4,0 z M 132,244 l 4,0 0,4 -4,0 z M 136,244 l 4,0 0,4 -4,0 z M 140,244 l 4,0 0,4 -4,0 z M 148,244 l 4,0 0,4 -4,0 z M 152,244 l 4,0 0,4 -4,0 z M 156,244 l 4,0 0,4 -4,0 z M 168,244 l 4,0 0,4 -4,0 z M 176,244 l 4,0 0,4 -4,0 z M 184,244 l 4,0 0,4 -4,0 z M 188,244 l 4,0 0,4 -4,0 z M 204,244 l 4,0 0,4 -4,0 z M 208,244 l 4,0 0,4 -4,0 z M 220,244 l 4,0 0,4 -4,0 z M 236,244 l 4,0 0,4 -4,0 z M 244,244 l 4,0 0,4 -4,0 z "></path></g></svg> 